<svg version="1.2" xmlns="http://www.w3.org/2000/svg" viewBox="0 0 400 115" width="186" height="53">
	<style>
		.s0 { fill: #ffffff } 
		.s1 { fill: #a72a56 } 
	</style>
	<path id="Shape 1" class="s0" d="m30 28c0-4.4 3.6-8 8-8h45.4c4.4 0 8 3.6 8 8v62.3c0 4.4-3.6 8-8 8h-45.4c-4.4 0-8-3.6-8-8z"/>
	<path id="Quicksur" fill-rule="evenodd" class="s1" d="m70.5 92.2l-8.4-9.3h-1q-12.6 0-19.6-6.9-7-7-7-19.5 0-12.4 7-19.4 7-7.1 19.2-7.1 12.4 0 19.3 7 7 7 7 19.5 0 8.6-3.7 14.9-3.7 6.2-10.6 9.3l10.3 11.5zm-9.7-52.6q-6 0-9.4 4.4-3.3 4.5-3.3 12.5 0 8.2 3.3 12.6 3.2 4.4 9.4 4.4 6 0 9.3-4.5 3.4-4.4 3.4-12.5 0-8-3.4-12.5-3.3-4.4-9.3-4.4z"/>
	<path id="Quicksur" class="s0" d="m96 67.1v-23.4h12.3v3.8q0 3.2-0.1 7.9 0 4.7 0 6.2 0 4.6 0.3 6.7 0.2 2 0.8 2.9 0.7 1.2 1.9 1.9 1.3 0.6 2.8 0.6 3.9 0 6-2.9 2.2-3 2.2-8.2v-18.9h12.3v38.3h-12.3v-5.5q-2.7 3.3-5.9 4.9-3 1.6-6.8 1.6-6.6 0-10.1-4.1-3.4-4-3.4-11.8zm50.2 14.9v-38.3h12.3v38.3zm0-43.2v-10h12.2v10zm54.9 6.1v10q-2.5-1.7-5-2.5-2.5-0.9-5.2-0.9-5.1 0-8 3.1-2.8 2.9-2.8 8.3 0 5.4 2.8 8.4 2.9 2.9 8 2.9 2.9 0 5.4-0.8 2.6-0.9 4.8-2.5v10q-2.9 1-5.8 1.6-3 0.5-5.9 0.5-10.4 0-16.2-5.3-5.9-5.3-5.9-14.8 0-9.5 5.9-14.8 5.8-5.3 16.2-5.3 3 0 5.9 0.5 2.9 0.6 5.8 1.6zm10.6 37.1v-53.2h12.2v29l14.1-14.1h14.2l-18.7 17.6 20.2 20.7h-14.8l-15-16v16zm76.5-37.1v9.3q-4-1.6-7.6-2.4-3.7-0.9-6.9-0.9-3.5 0-5.2 0.9-1.7 0.9-1.7 2.7 0 1.5 1.3 2.2 1.3 0.8 4.6 1.2l2.1 0.3q9.4 1.2 12.7 3.9 3.2 2.8 3.2 8.6 0 6.1-4.5 9.2-4.5 3.1-13.4 3.1-3.8 0-7.9-0.6-4-0.6-8.3-1.8v-9.3q3.7 1.8 7.5 2.7 3.8 0.9 7.8 0.9 3.6 0 5.4-1 1.8-1 1.8-3 0-1.6-1.2-2.4-1.3-0.8-5-1.3l-2.2-0.2q-8.1-1.1-11.4-3.8-3.3-2.8-3.3-8.4 0-6.1 4.2-9.1 4.2-2.9 12.8-2.9 3.4 0 7.1 0.5 3.7 0.5 8.1 1.6zm11.3 22.2v-23.4h12.3v3.8q0 3.2 0 7.9 0 4.7 0 6.2 0 4.6 0.2 6.7 0.2 2 0.8 2.9 0.8 1.2 2 1.9 1.2 0.6 2.8 0.6 3.8 0 6-2.9 2.2-3 2.2-8.2v-18.9h12.2v38.3h-12.2v-5.5q-2.8 3.3-5.9 4.9-3.1 1.6-6.8 1.6-6.6 0-10.1-4.1-3.5-4-3.5-11.8zm78.7-24v11q-1.6-0.7-3.2-1.1-1.6-0.3-3.2-0.3-4.7 0-7.3 3-2.5 3-2.5 8.7v17.6h-12.2v-38.3h12.2v6.3q2.4-3.8 5.4-5.5 3.1-1.7 7.4-1.7 0.6 0 1.3 0.1 0.7 0 2.1 0.2z"/>
</svg>